<svg width="32" height="32" viewBox="0 0 32 32" fill="none" xmlns="http://www.w3.org/2000/svg">
  <path d="M16 4L4 14V26H28V14L16 4Z" stroke="#1A2B33" stroke-width="2" stroke-linejoin="round"/>
  <path d="M22 6V10" stroke="#1A2B33" stroke-width="2" stroke-linecap="round"/>
  
  <rect x="4" y="26" width="24" height="2" rx="1" fill="#4CAF7B"/>
  
  <path d="M16 12C16.8284 12 17.5 11.3284 17.5 10.5C17.5 9.67157 16.8284 9 16 9C15.1716 9 14.5 9.67157 14.5 10.5C14.5 11.3284 15.1716 12 16 12Z" fill="#1A2B33"/>
  <path d="M13 14L11 18H13L13.5 24H18.5L19 18H21L19 14H13Z" fill="#1A2B33"/>
  
  <rect x="10" y="13" width="3" height="1.5" rx="0.5" fill="#4CAF7B"/>
  <rect x="19" y="13" width="3" height="1.5" rx="0.5" fill="#4CAF7B"/>
</svg>
